<svg width="191" height="34" viewBox="0 0 191 34" fill="none" xmlns="http://www.w3.org/2000/svg">
<path d="M39.4515 10.4015H36.6225L36.6452 10.3421L36.341 9.71168C35.4033 7.77026 32.1406 1.34072 29.5522 0.143895L29.2458 0H11.7564L11.4499 0.143895C8.857 1.34072 5.59896 7.77026 4.65899 9.71168L4.35467 10.3421L4.37973 10.4015H1.55074C0.697049 10.4015 0 11.0067 0 11.7559V13.1925C0 13.9394 0.697049 14.547 1.55074 14.547H2.44984C2.35675 15.0038 2.2954 15.4743 2.2954 15.9676V22.4177C2.2954 24.3546 3.06283 26.0585 4.22984 27.1114V32.4423C4.22984 33.3057 4.92456 34 5.77826 34H9.26798C10.1217 34 10.8165 33.3057 10.8165 32.4423V28.2191H30.1835V32.4423C30.1835 33.3057 30.8783 34 31.7342 34H35.2194C36.0799 34 36.77 33.3057 36.77 32.4423V27.1114C37.9416 26.0585 38.7068 24.3546 38.7068 22.4177V15.9676C38.7068 15.4743 38.6455 15.0038 38.5502 14.547H39.4515C40.3074 14.547 41 13.9394 41 13.1948V11.7559C41 11.0067 40.3074 10.4015 39.4515 10.4015ZM12.5103 3.1177H28.4874C29.5477 3.92168 31.5503 7.12388 33.1011 10.1639H7.9057C9.45189 7.12388 11.4545 3.92168 12.5103 3.1177Z" fill="#F07D00"/>
<circle cx="62" cy="11" r="6" fill="#F07D00"/>
<path d="M62 17C57.0294 17 53 23.7157 53 32H71C71 23.7157 66.9706 17 62 17Z" fill="#F07D00"/>
<circle cx="92" cy="11" r="6" fill="#F07D00"/>
<path d="M92 17C87.0294 17 83 23.7157 83 32H101C101 23.7157 96.9706 17 92 17Z" fill="#F07D00"/>
<circle cx="122" cy="11" r="6" fill="#F07D00"/>
<path d="M122 17C117.029 17 113 23.7157 113 32H131C131 23.7157 126.971 17 122 17Z" fill="#F07D00"/>
<circle cx="152" cy="11" r="5.5" fill="#F07D00" stroke="#F07D00"/>
<path d="M160.495 31.5H143.505C143.582 27.6336 144.555 24.167 146.065 21.6506C147.645 19.0163 149.759 17.5 152 17.5C154.241 17.5 156.355 19.0163 157.935 21.6506C159.445 24.167 160.418 27.6336 160.495 31.5Z" fill="#F07D00" stroke="#F07D00"/>
<circle cx="182" cy="11" r="5.5" stroke="#F07D00"/>
<path d="M190.495 31.5H173.505C173.582 27.6336 174.555 24.167 176.065 21.6506C177.645 19.0163 179.759 17.5 182 17.5C184.241 17.5 186.355 19.0163 187.935 21.6506C189.445 24.167 190.418 27.6336 190.495 31.5Z" stroke="#F07D00"/>
<circle cx="62" cy="25" r="3.5" stroke="white"/>
<rect x="59.25" y="24.25" width="5.5" height="0.5" stroke="white" stroke-width="0.5"/>
<path d="M61.8743 27.5C61.6178 26.7365 61.1816 26.0517 60.6093 25.5L63.3907 25.5C62.8184 26.0517 62.3822 26.7365 62.1257 27.5L61.8743 27.5Z" stroke="white"/>
<rect x="62.5" y="25" width="2" height="1" transform="rotate(89.984 62.5 25)" fill="white"/>
<circle cx="62" cy="25.5" r="0.5" fill="#F07D00"/>
</svg>
