<svg width="41" height="34" viewBox="0 0 41 34" fill="none" xmlns="http://www.w3.org/2000/svg">
<path d="M39.4515 10.4015H36.6225L36.6452 10.3421L36.341 9.71168C35.4033 7.77026 32.1406 1.34072 29.5522 0.143895L29.2458 0H11.7564L11.4499 0.143895C8.857 1.34072 5.59896 7.77026 4.65899 9.71168L4.35467 10.3421L4.37973 10.4015H1.55074C0.697049 10.4015 0 11.0067 0 11.7559V13.1925C0 13.9394 0.697049 14.547 1.55074 14.547H2.44984C2.35675 15.0038 2.2954 15.4743 2.2954 15.9676V22.4177C2.2954 24.3546 3.06283 26.0585 4.22984 27.1114V32.4423C4.22984 33.3057 4.92456 34 5.77826 34H9.26798C10.1217 34 10.8165 33.3057 10.8165 32.4423V28.2191H30.1835V32.4423C30.1835 33.3057 30.8783 34 31.7342 34H35.2194C36.0799 34 36.77 33.3057 36.77 32.4423V27.1114C37.9416 26.0585 38.7068 24.3546 38.7068 22.4177V15.9676C38.7068 15.4743 38.6455 15.0038 38.5502 14.547H39.4515C40.3074 14.547 41 13.9394 41 13.1948V11.7559C41 11.0067 40.3074 10.4015 39.4515 10.4015ZM12.5103 3.1177H28.4874C29.5477 3.92168 31.5503 7.12388 33.1011 10.1639H7.9057C9.45189 7.12388 11.4545 3.92168 12.5103 3.1177Z" fill="#F07D00"/>
</svg>
